<svg id="Layer_1" viewBox="0 0 24 24" xmlns="http://www.w3.org/2000/svg" data-name="Layer 1"><path d="m7.339 14.699c-.215.216-.34.52-.339.842 0 .321.128.624.357.851l2.478 2.237c.205.186.221.501.036.706-.185.206-.502.22-.706.036l-2.494-2.253c-.437-.431-.669-.984-.671-1.574s.227-1.146.645-1.563l2.515-2.346c.201-.188.519-.177.706.024.188.202.178.519-.024.706l-2.502 2.334zm16.661-9.199v13c0 2.481-2.019 4.5-4.5 4.5h-15c-2.481 0-4.5-2.019-4.5-4.5v-13c0-2.481 2.019-4.5 4.5-4.5h15c2.481 0 4.5 2.019 4.5 4.5zm-23 0v2.5h22v-2.5c0-1.93-1.57-3.5-3.5-3.5h-15c-1.93 0-3.5 1.57-3.5 3.5zm22 13v-9.5h-22v9.5c0 1.93 1.57 3.5 3.5 3.5h15c1.93 0 3.5-1.57 3.5-3.5zm-19-12.5c.552 0 1-.448 1-1s-.448-1-1-1-1 .448-1 1 .448 1 1 1zm3 0c.552 0 1-.448 1-1s-.448-1-1-1-1 .448-1 1 .448 1 1 1zm3 0c.552 0 1-.448 1-1s-.448-1-1-1-1 .448-1 1 .448 1 1 1zm4.841 5.635c-.2-.188-.519-.177-.706.024-.188.202-.178.519.024.706l2.489 2.322c.228.228.353.531.352.854 0 .321-.128.624-.341.835l-2.494 2.253c-.205.186-.221.501-.036.706.185.206.501.22.706.036l2.511-2.269c.42-.415.652-.969.654-1.559s-.227-1.146-.657-1.575l-2.502-2.334z"/></svg>